<svg width="57" height="150" viewBox="0 0 57 150" fill="none" xmlns="http://www.w3.org/2000/svg">
<path d="M5.932 29.8381C13.4747 29.5878 21.0679 28.0889 28.5139 29.472C35.9569 30.8551 43.5358 36.1119 44.9997 44.1829C46.3671 51.7246 42.0887 59.0613 37.286 64.668C32.4833 70.2715 26.7889 75.3856 24.2248 82.5297C20.5679 92.7219 24.2004 104.195 23.676 115.134C23.1964 125.173 18.9954 134.928 12.2263 141.733C8.73937 145.24 4.58935 147.939 0.122 149.698L-2.99996 29.238C-0.0588862 29.7903 2.98413 29.937 5.932 29.8381Z" fill="#FFE9AB" fill-opacity="0.5"/>
<path d="M-2.50034 143.097C-2.25491 143.108 -2.03918 142.84 -2.01542 142.493C-1.99125 142.135 -2.17581 141.825 -2.42758 141.801C-2.8762 141.76 -3.32859 141.698 -3.77112 141.621C-4.02665 141.578 -4.25561 141.832 -4.29355 142.189C-4.33148 142.545 -4.1589 142.868 -3.90795 142.911C-3.44936 142.989 -2.98106 143.055 -2.51639 143.097C-2.5118 143.097 -2.50722 143.097 -2.50034 143.097ZM0.941542 143.102C0.955304 143.102 0.971375 143.103 0.985274 143.1C1.45134 143.055 1.92265 142.993 2.38549 142.915C2.63783 142.87 2.82378 142.546 2.80194 142.19C2.77781 141.834 2.55406 141.58 2.30187 141.622C1.85522 141.698 1.39995 141.76 0.952374 141.803C0.698562 141.828 0.499533 142.136 0.509767 142.494C0.518661 142.83 0.70758 143.092 0.941542 143.102ZM-7.23152 142.004C-7.02279 142.012 -6.82613 141.815 -6.76312 141.518C-6.69105 141.17 -6.83015 140.816 -7.07446 140.724C-7.50657 140.562 -7.94014 140.381 -8.36171 140.188C-8.60062 140.077 -8.86356 140.265 -8.94926 140.609C-9.03482 140.951 -8.91001 141.318 -8.6688 141.429C-8.22916 141.63 -7.77981 141.818 -7.33408 141.983C-7.30008 141.994 -7.26364 142.002 -7.23152 142.004ZM5.71689 141.993C5.76047 141.995 5.80445 141.987 5.84871 141.973C6.3039 141.803 6.76235 141.61 7.20757 141.404C7.4513 141.291 7.59069 140.925 7.51771 140.584C7.44473 140.242 7.18819 140.059 6.94689 140.169C6.51813 140.366 6.07844 140.549 5.63958 140.713C5.39208 140.807 5.23933 141.162 5.29828 141.51C5.34376 141.795 5.51963 141.985 5.71689 141.993ZM-11.7006 139.644C-11.5262 139.651 -11.3528 139.515 -11.2647 139.278C-11.1477 138.954 -11.2349 138.566 -11.4581 138.41C-11.6881 138.251 -11.9132 138.085 -12.1382 137.916C-12.3609 137.747 -12.6396 137.872 -12.7655 138.189C-12.8913 138.507 -12.8114 138.901 -12.591 139.069C-12.3571 139.245 -12.1208 139.418 -11.8842 139.584C-11.826 139.623 -11.7625 139.642 -11.7006 139.644ZM10.2733 139.586C10.3467 139.589 10.4211 139.566 10.4921 139.517C10.9157 139.225 11.3402 138.911 11.7514 138.583C11.9748 138.407 12.0604 138.01 11.9426 137.695C11.8247 137.384 11.5466 137.275 11.3209 137.451C10.924 137.767 10.5161 138.069 10.109 138.351C9.87945 138.511 9.7781 138.901 9.88401 139.224C9.95516 139.445 10.1081 139.579 10.2733 139.586ZM14.4364 135.98C14.5373 135.984 14.6426 135.939 14.7316 135.845C15.1091 135.445 15.4851 135.027 15.8501 134.596C16.0483 134.364 16.0794 133.951 15.9207 133.681C15.7621 133.407 15.4716 133.376 15.2735 133.608C14.923 134.02 14.5591 134.425 14.1958 134.814C13.989 135.033 13.942 135.441 14.091 135.724C14.1739 135.884 14.3011 135.974 14.4364 135.98ZM18.0681 131.348C18.1989 131.354 18.3306 131.281 18.4288 131.132C18.7481 130.641 19.0658 130.133 19.3677 129.618C19.5334 129.339 19.5093 128.928 19.3164 128.705C19.1237 128.478 18.8323 128.525 18.6689 128.804C18.3769 129.3 18.0714 129.792 17.7621 130.264C17.5878 130.53 17.5934 130.944 17.7787 131.183C17.8616 131.288 17.9649 131.344 18.0681 131.348ZM21.0419 125.859C21.2025 125.866 21.3635 125.752 21.4574 125.541C21.7087 124.972 21.9514 124.39 22.1804 123.807C22.304 123.489 22.2263 123.095 22.0058 122.93C21.7853 122.764 21.5044 122.886 21.3808 123.203C21.162 123.764 20.927 124.327 20.6835 124.874C20.5465 125.181 20.6102 125.581 20.823 125.765C20.8893 125.827 20.9662 125.856 21.0419 125.859ZM23.2261 119.692C23.4188 119.7 23.605 119.535 23.6806 119.265C23.8458 118.67 24.0101 118.038 24.1681 117.394C24.2514 117.052 24.1266 116.685 23.8875 116.578C23.6485 116.47 23.3856 116.657 23.3023 116.999C23.1473 117.628 22.9882 118.243 22.826 118.822C22.7314 119.16 22.8468 119.533 23.0829 119.657C23.1302 119.678 23.178 119.69 23.2261 119.692ZM24.7345 113.148C24.9455 113.157 25.1446 112.957 25.2032 112.657C25.3285 112.024 25.4516 111.391 25.5725 110.754C25.64 110.405 25.4939 110.054 25.2493 109.969C25.0024 109.884 24.752 110.101 24.6846 110.45C24.5639 111.08 24.4433 111.71 24.3181 112.34C24.2483 112.688 24.3897 113.043 24.6343 113.128C24.6683 113.139 24.7001 113.147 24.7345 113.148ZM26.0148 106.51C26.2258 106.519 26.4224 106.322 26.4834 106.019C26.6085 105.392 26.7382 104.766 26.8723 104.143C26.9466 103.798 26.81 103.437 26.5681 103.342C26.3262 103.247 26.0672 103.451 25.993 103.797C25.8563 104.426 25.7264 105.059 25.5986 105.695C25.5288 106.044 25.6702 106.398 25.9146 106.486C25.9484 106.504 25.9804 106.509 26.0148 106.51ZM27.5501 99.9805C27.7405 99.9885 27.9265 99.827 28.002 99.5599C28.1772 98.9453 28.3608 98.3473 28.5454 97.7819C28.6535 97.4511 28.5546 97.0692 28.3262 96.9261C28.0955 96.7829 27.8226 96.9343 27.7147 97.2619C27.5224 97.8465 27.3334 98.4638 27.1504 99.1008C27.0535 99.4387 27.1666 99.8114 27.4025 99.9385C27.4519 99.9666 27.4996 99.9784 27.5501 99.9805ZM29.8144 93.8754C29.9681 93.8819 30.1241 93.7777 30.2197 93.5798C30.4715 93.0564 30.7416 92.5336 31.025 92.0213C31.1841 91.7349 31.153 91.3265 30.953 91.1097C30.7553 90.893 30.4657 90.9493 30.3066 91.2357C30.0107 91.7703 29.7257 92.3217 29.4615 92.8675C29.3179 93.1675 29.3677 93.5701 29.5777 93.7678C29.6507 93.836 29.7319 93.872 29.8144 93.8754ZM32.9897 88.6226C33.1113 88.6277 33.2357 88.5646 33.3308 88.4351C33.6523 87.9992 33.9927 87.5543 34.3444 87.1132C34.5361 86.8705 34.5601 86.4612 34.3944 86.1937C34.2286 85.9295 33.94 85.9076 33.746 86.1502C33.3846 86.604 33.0322 87.0614 32.7031 87.5132C32.5178 87.766 32.5074 88.1791 32.6805 88.4338C32.7652 88.5514 32.875 88.6178 32.9897 88.6226ZM36.7293 84.1588C36.8325 84.1631 36.9378 84.1187 37.0269 84.0214C37.395 83.6266 37.7676 83.2352 38.1423 82.8471C38.349 82.6311 38.4004 82.2262 38.254 81.9368C38.1076 81.6473 37.8205 81.5897 37.6138 81.8057C37.2344 82.1968 36.8569 82.5945 36.484 82.9957C36.2795 83.2151 36.2347 83.6235 36.3836 83.9098C36.4712 84.0665 36.5986 84.1533 36.7293 84.1588ZM40.6954 80.1016C40.794 80.1058 40.8921 80.0676 40.9808 79.9801C41.3622 79.5988 41.7435 79.2175 42.1227 78.8329C42.3315 78.6202 42.3853 78.2155 42.2413 77.9229C42.0972 77.6335 41.8103 77.5694 41.6015 77.7821C41.2224 78.1634 40.8434 78.5448 40.4644 78.9262C40.2534 79.1355 40.1995 79.5435 40.3413 79.8328C40.4261 80.0024 40.56 80.096 40.6954 80.1016ZM44.6423 76.0079C44.7479 76.0123 44.8556 75.9647 44.9471 75.8644C45.3206 75.4502 45.6901 75.0228 46.0458 74.5949C46.2418 74.3589 46.2706 73.9465 46.1096 73.676C45.9486 73.4055 45.6603 73.3771 45.462 73.613C45.116 74.0284 44.7562 74.4431 44.3923 74.8479C44.1898 75.0739 44.1497 75.4825 44.3034 75.7625C44.3887 75.9191 44.5139 76.0025 44.6423 76.0079ZM48.2723 71.3636C48.4008 71.3689 48.5323 71.2996 48.6281 71.1538C48.959 70.6597 49.281 70.1587 49.5823 69.6601C49.7501 69.3838 49.7329 68.9728 49.5426 68.7434C49.3523 68.514 49.0612 68.5506 48.8934 68.8269C48.6022 69.3064 48.29 69.7915 47.9689 70.2697C47.7925 70.5326 47.7935 70.9462 47.9764 71.1883C48.0613 71.2994 48.1668 71.3591 48.2723 71.3636ZM51.2965 65.9318C51.4571 65.9386 51.6181 65.8248 51.7118 65.6171C51.9705 65.0386 52.2112 64.4495 52.431 63.8661C52.5524 63.5455 52.4677 63.1545 52.2447 62.9921C52.0218 62.8297 51.7428 62.9612 51.6214 63.2818C51.4144 63.8332 51.1841 64.3934 50.9381 64.9464C50.8011 65.2533 50.8625 65.6531 51.0776 65.838C51.1462 65.8995 51.2208 65.9287 51.2965 65.9318ZM53.2897 59.6623C53.5031 59.6713 53.7023 59.468 53.761 59.1643C53.8876 58.5021 53.9869 57.8322 54.058 57.1774C54.096 56.8208 53.9258 56.4945 53.6749 56.4514C53.424 56.4051 53.1882 56.659 53.1503 57.0156C53.0833 57.625 52.9907 58.2463 52.8752 58.8634C52.81 59.2124 52.9538 59.5636 53.1985 59.6455C53.2281 59.6532 53.2576 59.661 53.2897 59.6623ZM53.59 52.8855C53.6222 52.8868 53.6521 52.8848 53.6846 52.8764C53.9355 52.812 54.1082 52.4741 54.0725 52.1209C54.0017 51.4537 53.9031 50.7917 53.776 50.1514C53.7076 49.8099 53.456 49.617 53.2103 49.7239C52.9668 49.8309 52.8228 50.1961 52.8912 50.5376C53.0089 51.1287 53.1005 51.7382 53.1643 52.3531C53.1951 52.6605 53.379 52.8766 53.59 52.8855ZM51.8924 46.6305C51.9864 46.6344 52.0823 46.5961 52.1684 46.515C52.3814 46.3123 52.4422 45.9046 52.3052 45.609C52.0523 45.0644 51.7692 44.5282 51.4646 44.0107C51.3036 43.7402 51.0154 43.7086 50.8171 43.9445C50.6211 44.1805 50.5902 44.5895 50.751 44.8633C51.0341 45.344 51.2958 45.8435 51.532 46.3483C51.6164 46.5277 51.7525 46.6246 51.8924 46.6305ZM48.6063 41.8165C48.7531 41.8227 48.9018 41.728 48.9991 41.5465C49.1537 41.2566 49.1157 40.848 48.9154 40.6377C48.55 40.2544 48.1613 39.8799 47.7625 39.5278C47.5498 39.3397 47.2654 39.4353 47.1262 39.742C46.987 40.0488 47.046 40.4486 47.2587 40.6366C47.6376 40.9716 48.0065 41.3257 48.3542 41.692C48.4289 41.7733 48.5168 41.8128 48.6063 41.8165ZM44.4534 38.5488C44.6392 38.5566 44.8203 38.4014 44.9 38.1442C45.0037 37.8099 44.8978 37.431 44.6644 37.2975C44.2405 37.0518 43.8046 36.8153 43.3632 36.6014C43.1269 36.484 42.8619 36.665 42.7718 37.0064C42.6816 37.3478 42.8017 37.7176 43.0404 37.8318C43.4638 38.0384 43.8863 38.2645 44.2945 38.5031C44.3461 38.5313 44.4006 38.5466 44.4534 38.5488ZM19.2532 36.4791C19.7004 36.4979 20.1688 36.5078 20.6421 36.5081C20.8948 36.5089 21.1069 36.2182 21.1152 35.8571C21.1233 35.4993 20.9221 35.201 20.6691 35.2067C20.2026 35.2067 19.7435 35.1972 19.3054 35.1788C19.0531 35.1682 18.8344 35.4521 18.8194 35.8097C18.8067 36.1673 19.0008 36.4686 19.2532 36.4791ZM15.8285 36.1173C16.0625 36.1271 16.2727 35.882 16.3097 35.5481C16.3476 35.1915 16.1775 34.8653 15.9265 34.8222C15.475 34.7414 15.0239 34.6475 14.5919 34.5382C14.3464 34.4758 14.0998 34.713 14.0505 35.0659C13.999 35.4186 14.1594 35.7575 14.4096 35.8168C14.8577 35.9268 15.3222 36.0277 15.7875 36.1091C15.7987 36.1161 15.8125 36.1167 15.8285 36.1173ZM24.0776 36.3917C24.089 36.3922 24.1005 36.3926 24.1121 36.3899C24.5729 36.3604 25.0338 36.3276 25.4948 36.2948C25.7483 36.2761 25.9496 35.9687 25.944 35.6103C25.9383 35.2519 25.7317 34.9729 25.4735 34.9946C25.0148 35.0275 24.5562 35.0604 24.1 35.0901C23.8466 35.1055 23.6431 35.4096 23.6465 35.7679C23.6481 36.1132 23.839 36.3817 24.0776 36.3917ZM39.8777 36.5952C40.0979 36.6045 40.3 36.3883 40.3522 36.0746C40.4107 35.7221 40.255 35.3802 40.0099 35.308C39.5557 35.1783 39.0942 35.0612 38.6364 34.9639C38.3882 34.9111 38.1482 35.155 38.1034 35.5114C38.0585 35.8677 38.224 36.197 38.4745 36.2498C38.9163 36.3433 39.3643 36.4565 39.8024 36.5823C39.8251 36.5898 39.8525 36.5942 39.8777 36.5952ZM28.8999 36.0241C28.9114 36.0246 28.9252 36.0251 28.9391 36.0225C29.3977 35.9896 29.8563 35.9567 30.3125 35.927C30.5659 35.9116 30.7694 35.6075 30.7661 35.2492C30.7627 34.8909 30.5631 34.609 30.3004 34.6272C29.8396 34.6568 29.3787 34.6895 28.9178 34.7223C28.6642 34.741 28.4629 35.0484 28.4685 35.4068C28.4749 35.749 28.6637 36.0142 28.8999 36.0241ZM33.7251 35.8097C33.7297 35.8098 33.7342 35.81 33.7388 35.8102C34.2053 35.8103 34.6644 35.8197 35.1048 35.8382C35.3572 35.8488 35.5759 35.5649 35.5909 35.2073C35.6059 34.8498 35.4117 34.5486 35.1594 34.538C34.7121 34.5192 34.246 34.5094 33.7704 34.509C33.5177 34.5082 33.3056 34.7989 33.2974 35.16C33.2872 35.5112 33.4796 35.7994 33.7251 35.8097ZM11.1512 34.6707C11.3485 34.679 11.5396 34.5046 11.6112 34.2211C11.6968 33.8795 11.5743 33.5129 11.3354 33.402C10.9186 33.2054 10.4958 32.9857 10.0853 32.7471C9.85192 32.6136 9.58093 32.7748 9.47972 33.1059C9.37838 33.4404 9.48425 33.8193 9.71533 33.9527C10.146 34.202 10.5868 34.4321 11.024 34.6361C11.0668 34.6574 11.1099 34.669 11.1512 34.6707ZM6.84297 31.8198C7.00354 31.8266 7.16455 31.7128 7.25599 31.505C7.39294 31.1981 7.33159 30.7983 7.11888 30.6103C6.74433 30.2819 6.37059 29.9341 6.00901 29.5705C5.80387 29.3665 5.51819 29.4392 5.36559 29.7357C5.21529 30.0322 5.25814 30.4345 5.46315 30.6418C5.84024 31.019 6.22935 31.3838 6.61941 31.7258C6.69036 31.7874 6.76499 31.8165 6.84297 31.8198ZM3.09603 27.6932C3.22219 27.6985 3.35148 27.629 3.44937 27.4866C3.62813 27.2238 3.62695 26.8134 3.44881 26.5683C3.13151 26.1349 2.81748 25.6789 2.51962 25.2202C2.35135 24.9592 2.05989 24.9502 1.87034 25.1963C1.68079 25.4423 1.66577 25.8552 1.83405 26.1163C2.14485 26.595 2.46971 27.0677 2.80009 27.518C2.88275 27.6289 2.98823 27.6887 3.09603 27.6932ZM0.0418707 22.5536C0.138208 22.5576 0.236309 22.5194 0.324995 22.4319C0.535979 22.2226 0.592019 21.8179 0.452629 21.5255C0.203101 21.0103 -0.0386029 20.4727 -0.266534 19.9356C-0.396202 19.6306 -0.677333 19.5406 -0.896811 19.7333C-1.11629 19.926 -1.18826 20.3267 -1.06088 20.6317C-0.824729 21.1919 -0.572238 21.7463 -0.314488 22.2846C-0.231985 22.4542 -0.0980477 22.5477 0.0418707 22.5536ZM-2.22602 16.6361C-2.1595 16.6389 -2.08987 16.6223 -2.02374 16.5795C-1.79011 16.433 -1.6774 16.0469 -1.774 15.7205C-1.94484 15.137 -2.1061 14.5441 -2.25129 13.9518C-2.33372 13.6162 -2.59541 13.4457 -2.83523 13.5757C-3.07492 13.7024 -3.20326 14.078 -3.11853 14.4137C-2.96741 15.029 -2.80023 15.6449 -2.62117 16.2516C-2.55516 16.4856 -2.39805 16.6289 -2.22602 16.6361ZM-3.595 10.1605C-3.5583 10.162 -3.52133 10.157 -3.48409 10.1456C-3.23498 10.0681 -3.06887 9.72339 -3.11622 9.37298C-3.19812 8.75084 -3.26584 8.11953 -3.32008 7.49529C-3.3511 7.13905 -3.57982 6.895 -3.83256 6.94953C-4.08531 7.00405 -4.26466 7.33519 -4.23365 7.69143C-4.17821 8.34177 -4.10711 9.00252 -4.02171 9.65086C-3.98123 9.94563 -3.80144 10.1518 -3.595 10.1605ZM-3.9426 3.38248C-3.94031 3.38257 -3.93804 3.38267 -3.93574 3.38276C-3.68316 3.38685 -3.46659 3.0996 -3.45618 2.74184C-3.45152 2.57596 -3.44443 2.40693 -3.43748 2.24115C-3.41771 1.76981 -3.38877 1.29886 -3.35335 0.837941C-3.32459 0.480951 -3.50675 0.167213 -3.76053 0.13703C-4.0123 0.113445 -4.23922 0.374206 -4.26812 0.734447C-4.30678 1.21802 -4.33439 1.71183 -4.35511 2.20592C-4.36247 2.38145 -4.3697 2.55374 -4.37476 2.72937C-4.3849 3.08062 -4.19262 3.37199 -3.9426 3.38248Z" fill="#DC8338"/>
</svg>
