<svg width="210" height="89" viewBox="0 0 210 89" fill="none" xmlns="http://www.w3.org/2000/svg">
<path d="M195.024 81.1375C188.382 75.7911 184.392 68.184 181.107 60.6072C177.822 53.0304 175.004 45.1694 170.03 38.4373C157.334 21.2503 133.183 14.8148 110.808 14.0392C88.4337 13.2668 65.9289 16.8787 43.7153 14.241C28.5463 12.4403 12.8909 6.76713 2.14977 -2.92517L212.789 0.323397L211.45 87.1334C205.575 87.1334 199.545 84.781 195.024 81.1375Z" fill="#FFE9AB" fill-opacity="0.5"/>
<path d="M50.5548 -10.6549C50.7716 -10.6619 50.9842 -10.5432 51.0799 -10.336C51.3071 -9.84913 51.5456 -9.35719 51.7893 -8.87631C51.9259 -8.60768 51.8141 -8.27915 51.5402 -8.14471C51.2635 -8.01018 50.9316 -8.1196 50.7949 -8.38823C50.5453 -8.87984 50.3009 -9.38255 50.0678 -9.88287C49.9392 -10.1572 50.0652 -10.4807 50.3449 -10.6072C50.4107 -10.6366 50.4826 -10.6526 50.5548 -10.6549ZM53.2891 -5.59909C53.4837 -5.60537 53.6731 -5.51319 53.7816 -5.33922C54.0662 -4.88424 54.3621 -4.42416 54.6661 -3.97254C54.8356 -3.72135 54.763 -3.38317 54.5068 -3.21654C54.2506 -3.04991 53.9061 -3.12071 53.7366 -3.37189C53.4267 -3.83425 53.1223 -4.30223 52.8345 -4.76803C52.676 -5.02503 52.757 -5.36075 53.019 -5.51938C53.1036 -5.57126 53.1974 -5.59613 53.2891 -5.59909ZM56.6185 -0.898339C56.788 -0.903812 56.9601 -0.832928 57.0732 -0.68914C57.4096 -0.268594 57.7599 0.154225 58.1128 0.568777C58.3094 0.799973 58.2788 1.14501 58.043 1.33828C57.8072 1.53156 57.4556 1.50197 57.2589 1.27077C56.8975 0.848304 56.5413 0.417455 56.1963 -0.0137312C56.0078 -0.250651 56.0496 -0.59328 56.2911 -0.781283C56.3889 -0.85543 56.5045 -0.89466 56.6185 -0.898339ZM60.4773 3.39486C60.6274 3.39002 60.7767 3.44527 60.8916 3.55624C61.2767 3.93699 61.673 4.31738 62.069 4.68959C62.2928 4.89806 62.3011 5.24181 62.0884 5.46165C61.8756 5.68149 61.5253 5.69006 61.3015 5.48158C60.8942 5.10428 60.4893 4.71325 60.0983 4.3245C59.8827 4.1103 59.8854 3.76347 60.104 3.55163C60.2093 3.45267 60.3411 3.39926 60.4773 3.39486ZM64.8057 7.23335C64.9335 7.22923 65.0656 7.26865 65.1712 7.35261C65.5967 7.68837 66.036 8.02369 66.4722 8.34818C66.7173 8.52866 66.7673 8.87106 66.5803 9.11191C66.3961 9.35267 66.0471 9.40217 65.8019 9.21896C65.3544 8.88938 64.9065 8.54615 64.4724 8.20248C64.2326 8.01363 64.1965 7.67075 64.3892 7.43518C64.4964 7.30885 64.65 7.23838 64.8057 7.23335ZM69.549 10.567C69.6574 10.5635 69.7667 10.59 69.8634 10.6524C70.3262 10.9405 70.8001 11.2256 71.2708 11.4971C71.5345 11.6496 71.6232 11.9853 71.4674 12.2443C71.3116 12.5033 70.9694 12.5908 70.7057 12.4382C70.2237 12.1616 69.7413 11.8713 69.2671 11.5754C69.0087 11.4144 68.931 11.0757 69.0953 10.8219C69.1986 10.6602 69.3711 10.5727 69.549 10.567ZM74.65 13.3457C74.7362 13.3429 74.8258 13.3591 74.9078 13.4002C75.4023 13.6354 75.9077 13.8621 76.4044 14.0781C76.6866 14.2001 76.8138 14.5209 76.6892 14.7979C76.5646 15.075 76.2375 15.2002 75.9553 15.0783C75.4445 14.8572 74.9306 14.6253 74.4248 14.385C74.1479 14.2547 74.0316 13.9281 74.1647 13.6562C74.2587 13.4648 74.4499 13.3521 74.65 13.3457ZM80.046 15.5196C80.1099 15.5176 80.177 15.5263 80.2445 15.5487C80.7649 15.7231 81.2934 15.8917 81.8131 16.0442C82.1082 16.133 82.2738 16.4361 82.183 16.7257C82.092 17.0126 81.783 17.1782 81.4879 17.0895C80.9569 16.9319 80.4144 16.761 79.8827 16.5816C79.593 16.4844 79.4383 16.1754 79.5375 15.8883C79.6139 15.6674 79.8208 15.5269 80.046 15.5196ZM85.6738 17.0308C85.7182 17.0294 85.7629 17.0334 85.8049 17.043C86.3316 17.1516 86.8775 17.2541 87.426 17.3511C87.7282 17.4041 87.9293 17.687 87.8749 17.9837C87.8205 18.2803 87.5319 18.478 87.2297 18.425C86.6701 18.3284 86.1129 18.2207 85.5751 18.1125C85.2754 18.0512 85.0824 17.7626 85.1452 17.4656C85.2011 17.2154 85.4236 17.0389 85.6738 17.0308ZM91.4402 17.9232C91.468 17.9223 91.4931 17.9242 91.521 17.9261C92.0711 17.9875 92.621 18.0407 93.1736 18.0912C93.4806 18.1195 93.7034 18.3853 93.6768 18.6838C93.6476 18.9851 93.3765 19.2068 93.0723 19.1784C92.5142 19.1281 91.9559 19.0725 91.3974 19.0113C91.093 18.9774 90.8729 18.7088 90.9076 18.4073C90.9378 18.136 91.1678 17.932 91.4402 17.9232ZM97.2649 18.3796C97.2815 18.379 97.2954 18.3786 97.3122 18.3808C97.8668 18.4093 98.4214 18.4351 98.9759 18.4581C99.2823 18.4701 99.5215 18.7245 99.509 19.0252C99.4964 19.326 99.2369 19.561 98.9304 19.549C98.3704 19.5262 97.813 19.5004 97.2556 19.472C96.9491 19.4573 96.7126 19.2001 96.7307 18.8992C96.7437 18.6121 96.9813 18.3887 97.2649 18.3796ZM103.106 18.5842C103.118 18.5838 103.129 18.5835 103.137 18.5832C103.694 18.5953 104.248 18.6074 104.805 18.6195C105.111 18.626 105.356 18.8747 105.349 19.1753C105.342 19.4759 105.085 19.7189 104.782 19.7096C104.225 19.6976 103.668 19.6855 103.111 19.6735C102.805 19.667 102.56 19.4155 102.57 19.1148C102.577 18.8252 102.815 18.5936 103.106 18.5842ZM108.948 18.7042C108.959 18.7038 108.97 18.7035 108.981 18.7031C109.538 18.7152 110.095 18.7299 110.65 18.7475C110.956 18.7568 111.198 19.0083 111.188 19.309C111.178 19.6097 110.922 19.85 110.615 19.8381C110.061 19.8232 109.507 19.8083 108.953 19.7962C108.646 19.7897 108.402 19.5382 108.412 19.2375C108.416 18.948 108.653 18.7137 108.948 18.7042ZM114.779 18.9146C114.795 18.9141 114.812 18.9135 114.829 18.9157C115.389 18.9468 115.947 18.9807 116.502 19.0174C116.808 19.0375 117.039 19.2976 117.016 19.5987C116.995 19.8997 116.73 20.1295 116.423 20.1066C115.871 20.0698 115.319 20.0357 114.767 20.0044C114.46 19.987 114.226 19.7297 114.242 19.4289C114.26 19.147 114.495 18.9237 114.779 18.9146ZM120.599 19.393C120.626 19.3921 120.654 19.3939 120.685 19.3957C121.252 19.462 121.814 19.534 122.353 19.6121C122.658 19.6542 122.867 19.9314 122.824 20.2304C122.781 20.5294 122.498 20.7351 122.193 20.693C121.662 20.6173 121.112 20.545 120.553 20.4811C120.249 20.4446 120.031 20.1731 120.069 19.8742C120.099 19.6029 120.329 19.4017 120.599 19.393ZM126.353 20.3458C126.4 20.3443 126.448 20.3482 126.495 20.3576C127.05 20.4817 127.603 20.614 128.13 20.7499C128.428 20.8276 128.604 21.125 128.525 21.417C128.445 21.709 128.142 21.8799 127.844 21.8048C127.328 21.6713 126.792 21.5412 126.249 21.4222C125.949 21.3554 125.761 21.0639 125.83 20.7695C125.886 20.5247 126.106 20.3538 126.353 20.3458ZM131.932 21.9842C132.004 21.9818 132.077 21.9931 132.15 22.0208C132.68 22.2194 133.207 22.4318 133.718 22.6528C134 22.7748 134.127 23.0956 134.003 23.3726C133.878 23.6497 133.551 23.7749 133.269 23.653C132.775 23.4396 132.265 23.2349 131.752 23.0412C131.465 22.9331 131.324 22.6181 131.431 22.3362C131.514 22.1233 131.715 21.9912 131.932 21.9842ZM137.169 24.4882C137.272 24.4849 137.378 24.5087 137.475 24.5684C137.957 24.8559 138.437 25.1599 138.901 25.4698C139.154 25.6391 139.218 25.9784 139.045 26.227C138.872 26.4755 138.523 26.5387 138.27 26.3694C137.824 26.0698 137.364 25.7788 136.895 25.4991C136.632 25.3438 136.549 25.0079 136.71 24.7487C136.813 24.587 136.988 24.494 137.169 24.4882ZM141.816 27.9314C141.957 27.9268 142.104 27.9767 142.216 28.0796C142.626 28.4595 143.031 28.8587 143.417 29.2613C143.627 29.4811 143.616 29.8255 143.392 30.0321C143.167 30.2386 142.816 30.2281 142.606 30.0083C142.235 29.6189 141.847 29.2382 141.454 28.8741C141.23 28.6684 141.222 28.3219 141.432 28.1022C141.534 27.9924 141.674 27.936 141.816 27.9314ZM145.604 32.276C145.787 32.2701 145.968 32.3517 146.079 32.5119C146.397 32.9658 146.71 33.4363 147.001 33.9129C147.159 34.1699 147.075 34.5057 146.813 34.6616C146.551 34.8175 146.209 34.7357 146.048 34.4788C145.766 34.021 145.467 33.5692 145.158 33.1314C144.983 32.8831 145.048 32.5425 145.301 32.3732C145.396 32.31 145.501 32.2794 145.604 32.276ZM148.417 37.2829C148.64 37.2757 148.852 37.3999 148.945 37.6126C149.168 38.1187 149.379 38.6416 149.574 39.1595C149.681 39.4428 149.532 39.7561 149.243 39.861C148.955 39.9659 148.635 39.8206 148.529 39.5373C148.34 39.0355 148.138 38.5342 147.924 38.0442C147.804 37.7668 147.933 37.446 148.215 37.3276C148.281 37.3009 148.348 37.2851 148.417 37.2829ZM150.204 42.7297C150.465 42.7212 150.705 42.8964 150.763 43.1567C150.818 43.3979 150.868 43.642 150.918 43.8862C151.197 43.9372 151.395 44.1902 151.368 44.475C151.352 44.6585 151.242 44.8122 151.092 44.8962C151.086 45.1531 150.893 45.3777 150.625 45.4219C150.323 45.4726 150.036 45.2689 149.987 44.9729C149.984 44.9511 149.98 44.9321 149.977 44.9104C149.698 44.8948 149.419 44.8874 149.141 44.8828C148.835 44.879 148.588 44.633 148.592 44.3298C148.596 44.0294 148.853 43.789 149.156 43.7901C149.359 43.7918 149.562 43.7989 149.769 43.8059C149.739 43.6676 149.71 43.5293 149.68 43.391C149.615 43.0954 149.803 42.8054 150.104 42.7411C150.135 42.7346 150.168 42.7308 150.204 42.7297ZM144.987 44.1868C145.253 44.1782 145.493 44.3589 145.549 44.6219C145.611 44.9175 145.417 45.205 145.116 45.2666C144.591 45.3737 144.061 45.5027 143.542 45.6532C143.247 45.7392 142.939 45.5744 142.852 45.2851C142.764 44.9958 142.933 44.6927 143.228 44.6067C143.776 44.4471 144.337 44.3116 144.892 44.1981C144.923 44.1916 144.953 44.1879 144.987 44.1868ZM154.88 44.6702C154.939 44.6683 155 44.6773 155.059 44.6945C155.601 44.8572 156.144 45.0417 156.677 45.2457C156.961 45.3566 157.102 45.6715 156.992 45.9536C156.878 46.233 156.557 46.3717 156.27 46.2636C155.766 46.0696 155.251 45.8951 154.737 45.7397C154.442 45.6509 154.276 45.3478 154.367 45.0581C154.437 44.8265 154.649 44.6777 154.88 44.6702ZM139.509 46.1275C139.715 46.1208 139.916 46.2263 140.019 46.4168C140.161 46.6825 140.058 47.0135 139.787 47.1533C139.311 47.4008 138.838 47.6699 138.38 47.9523C138.121 48.1136 137.776 48.0373 137.612 47.7833C137.448 47.5292 137.526 47.1908 137.785 47.0295C138.268 46.73 138.765 46.4463 139.266 46.1872C139.343 46.1492 139.426 46.1302 139.509 46.1275ZM160.163 47.0608C160.272 47.0573 160.381 47.0838 160.481 47.1461C160.961 47.4474 161.433 47.7707 161.883 48.1084C162.129 48.2916 162.176 48.6341 161.989 48.8722C161.802 49.113 161.453 49.1598 161.21 48.9765C160.783 48.6572 160.336 48.3494 159.881 48.0638C159.623 47.9001 159.548 47.5639 159.712 47.3102C159.816 47.1539 159.988 47.0664 160.163 47.0608ZM150.908 48.408L150.91 48.4079C151.216 48.4008 151.472 48.6383 151.481 48.9383C151.496 49.4921 151.495 50.0546 151.477 50.6067C151.467 50.9074 151.21 51.1505 150.904 51.1358C150.598 51.1266 150.356 50.875 150.365 50.5743C150.382 50.0414 150.384 49.5007 150.369 48.9687C150.362 48.6686 150.602 48.4179 150.908 48.408ZM134.778 49.4611C134.931 49.4562 135.086 49.5139 135.198 49.6305C135.408 49.8476 135.4 50.1946 135.178 50.4011C134.787 50.7659 134.407 51.1523 134.047 51.5461C133.842 51.7712 133.49 51.7907 133.261 51.5906C133.031 51.3905 133.012 51.0444 133.216 50.8193C133.595 50.403 133.997 49.9969 134.41 49.6122C134.515 49.516 134.644 49.4654 134.778 49.4611ZM164.569 50.7903C164.73 50.7851 164.894 50.8481 165.009 50.9781C165.203 51.1958 165.391 51.4218 165.573 51.648C165.744 51.8609 165.913 52.0766 166.076 52.2952C166.256 52.5379 166.203 52.8809 165.953 53.0583C165.705 53.2355 165.356 53.184 165.175 52.9386C165.021 52.7306 164.861 52.5256 164.699 52.3233C164.528 52.1104 164.349 51.8977 164.167 51.6906C163.967 51.4623 163.992 51.1174 164.225 50.9215C164.323 50.8365 164.444 50.7943 164.569 50.7903ZM131.172 53.9488C131.272 53.9456 131.373 53.9697 131.466 54.0212C131.733 54.171 131.824 54.5039 131.671 54.7655C131.613 54.8629 131.558 54.9603 131.503 55.0604C131.303 55.419 131.115 55.7937 130.946 56.1732C130.824 56.4502 130.494 56.5755 130.215 56.4562C129.933 56.337 129.805 56.0134 129.927 55.7392C130.112 55.3264 130.313 54.924 130.529 54.5375C130.586 54.4319 130.647 54.3289 130.708 54.2259C130.808 54.0534 130.986 53.9548 131.172 53.9488ZM150.471 54.115C150.51 54.1137 150.549 54.1152 150.588 54.1221C150.891 54.1752 151.092 54.4581 151.037 54.7547C150.938 55.3013 150.82 55.8512 150.687 56.3906C150.615 56.6823 150.315 56.864 150.015 56.7918C149.718 56.7222 149.533 56.4251 149.607 56.1333C149.735 55.6159 149.849 55.088 149.946 54.5633C149.991 54.3052 150.216 54.1232 150.471 54.115ZM167.773 55.5579C167.981 55.5512 168.182 55.6594 168.286 55.8526C168.535 56.3224 168.778 56.8087 169.032 57.3411C169.163 57.6127 169.043 57.9387 168.766 58.0678C168.489 58.1969 168.157 58.0793 168.026 57.8078C167.778 57.2915 167.54 56.8159 167.298 56.3596C167.155 56.0911 167.262 55.7628 167.535 55.6229C167.612 55.5822 167.692 55.5605 167.773 55.5579ZM129.304 59.3443C129.334 59.3433 129.362 59.3452 129.393 59.3496C129.697 59.3889 129.912 59.6605 129.874 59.9594C129.805 60.4886 129.769 61.0139 129.769 61.5218C129.77 61.8166 129.53 62.0592 129.23 62.0689C129.225 62.0691 129.219 62.0692 129.214 62.0694C128.907 62.0684 128.657 61.8253 128.656 61.525C128.655 60.968 128.695 60.3961 128.771 59.8202C128.804 59.5489 129.034 59.353 129.304 59.3443ZM148.829 59.6042C148.907 59.6017 148.985 59.6155 149.061 59.6459C149.343 59.7623 149.479 60.0829 149.36 60.3598C149.277 60.5536 149.191 60.7475 149.103 60.9387C148.957 61.2574 148.803 61.5764 148.649 61.8817C148.513 62.1509 148.177 62.2628 147.903 62.1269C147.629 61.9938 147.515 61.6644 147.654 61.395C147.803 61.1008 147.949 60.7985 148.089 60.4909C148.173 60.308 148.256 60.1224 148.333 59.9369C148.418 59.7349 148.618 59.611 148.829 59.6042ZM170.175 60.7773C170.401 60.77 170.613 60.897 170.707 61.1124L170.875 61.5056C171.035 61.8772 171.191 62.249 171.351 62.6206C171.471 62.898 171.337 63.219 171.054 63.3346C170.771 63.453 170.444 63.3215 170.326 63.0441C170.167 62.6725 170.007 62.2981 169.848 61.9264L169.682 61.5332C169.565 61.2557 169.696 60.9347 169.982 60.819C170.045 60.7952 170.111 60.7794 170.175 60.7773ZM130.008 64.9571C130.225 64.9501 130.437 65.0689 130.533 65.276C130.748 65.7441 131.013 66.1807 131.318 66.5776C131.504 66.8174 131.454 67.1603 131.209 67.3429C130.965 67.5256 130.615 67.4768 130.429 67.237C130.075 66.7789 129.769 66.2699 129.518 65.7292C129.392 65.4548 129.515 65.1314 129.795 65.0077C129.864 64.9754 129.936 64.9595 130.008 64.9571ZM145.92 64.5582C146.047 64.5541 146.174 64.5937 146.282 64.6748C146.522 64.8609 146.564 65.2036 146.374 65.4418C146.01 65.8932 145.626 66.3233 145.232 66.7156C145.017 66.93 144.666 66.9332 144.445 66.7246C144.227 66.5132 144.224 66.1665 144.437 65.9521C144.804 65.5881 145.161 65.1888 145.501 64.7656C145.608 64.6338 145.761 64.5633 145.92 64.5582ZM172.532 66.0173C172.743 66.0105 172.947 66.1213 173.048 66.3201C173.3 66.8198 173.555 67.3003 173.809 67.7481C173.957 68.0109 173.859 68.3445 173.591 68.4896C173.323 68.6348 172.983 68.5393 172.835 68.2765C172.576 67.8152 172.312 67.3186 172.051 66.8056C171.914 66.5369 172.026 66.2084 172.302 66.0739C172.376 66.0387 172.457 66.0197 172.532 66.0173ZM141.474 68.2048C141.685 68.198 141.892 68.3114 141.993 68.5102C142.127 68.7817 142.012 69.1076 141.735 69.2394C141.212 69.4911 140.66 69.7 140.097 69.8656C139.802 69.9516 139.494 69.7868 139.406 69.4975C139.319 69.2081 139.487 68.9051 139.782 68.8191C140.29 68.6717 140.782 68.4811 141.25 68.2584C141.321 68.2234 141.396 68.2073 141.474 68.2048ZM134.176 68.7407C134.243 68.7386 134.312 68.7472 134.38 68.7723C134.856 68.9399 135.363 69.0601 135.889 69.1332C136.193 69.1753 136.405 69.4524 136.362 69.7486C136.319 70.0477 136.036 70.2534 135.734 70.214C135.136 70.1322 134.553 69.9927 134.007 69.8001C133.717 69.7002 133.568 69.3856 133.67 69.1038C133.749 68.8855 133.953 68.7479 134.176 68.7407ZM175.574 70.8939C175.75 70.8882 175.922 70.9619 176.035 71.1084C176.36 71.532 176.708 71.9522 177.06 72.3586C177.26 72.5869 177.232 72.9319 176.999 73.1278C176.766 73.3237 176.414 73.2968 176.215 73.0684C175.848 72.6462 175.489 72.2072 175.149 71.7704C174.963 71.5307 175.011 71.1879 175.255 71.0052C175.353 70.9338 175.463 70.8975 175.574 70.8939ZM179.539 75.0881C179.675 75.0837 179.815 75.1283 179.924 75.2259C180.334 75.5812 180.754 75.9281 181.179 76.2584C181.419 76.4445 181.461 76.7899 181.268 77.0255C181.075 77.2611 180.726 77.3024 180.486 77.1135C180.047 76.7701 179.609 76.4101 179.185 76.0415C178.956 75.8414 178.934 75.4954 179.138 75.2703C179.246 75.1549 179.391 75.0929 179.539 75.0881ZM218.55 75.6173C218.714 75.612 218.878 75.6777 218.993 75.8105C219.193 76.0416 219.162 76.3839 218.926 76.5799C218.496 76.9379 218.048 77.2882 217.597 77.6222C217.352 77.8048 217.003 77.7533 216.817 77.5136C216.634 77.2738 216.684 76.9308 216.928 76.7482C217.363 76.4283 217.795 76.0895 218.21 75.7485C218.31 75.6633 218.428 75.6213 218.55 75.6173ZM184.247 78.4584C184.35 78.4551 184.454 78.479 184.547 78.5333C185.015 78.8049 185.499 79.0678 185.978 79.3145C186.249 79.4531 186.354 79.7829 186.213 80.0495C186.071 80.3162 185.735 80.4199 185.463 80.2812C184.965 80.027 184.467 79.7537 183.979 79.4718C183.715 79.3192 183.627 78.9835 183.785 78.7245C183.886 78.5601 184.064 78.4643 184.247 78.4584ZM213.738 78.8525C213.941 78.846 214.139 78.9488 214.245 79.1365C214.393 79.4021 214.292 79.7329 214.024 79.8781C213.529 80.1426 213.02 80.3993 212.51 80.6369C212.233 80.766 211.901 80.6511 211.77 80.3796C211.639 80.108 211.756 79.782 212.033 79.653C212.524 79.4214 213.017 79.1762 213.493 78.9205C213.566 78.8772 213.652 78.8553 213.738 78.8525ZM189.523 80.8874C189.59 80.8853 189.66 80.8939 189.727 80.919C190.24 81.0991 190.765 81.2651 191.285 81.4121C191.58 81.4954 191.748 81.7985 191.663 82.088C191.578 82.3774 191.268 82.543 190.974 82.4597C190.434 82.3051 189.889 82.1316 189.357 81.9467C189.067 81.8468 188.918 81.5349 189.02 81.2504C189.097 81.0322 189.301 80.8946 189.523 80.8874ZM208.373 81.1008C208.615 81.093 208.843 81.244 208.92 81.4818C209.013 81.7682 208.85 82.0765 208.558 82.1679C208.018 82.3355 207.467 82.4925 206.926 82.6301C206.628 82.7053 206.324 82.5294 206.248 82.2397C206.172 81.9473 206.352 81.6493 206.647 81.5743C207.171 81.4427 207.701 81.2918 208.221 81.1276C208.274 81.1122 208.323 81.1024 208.373 81.1008ZM195.185 82.2473C195.216 82.2463 195.249 82.248 195.28 82.2525C195.814 82.3253 196.361 82.3841 196.905 82.4266C197.212 82.4495 197.44 82.7124 197.414 83.0136C197.39 83.3147 197.119 83.5392 196.815 83.5135C196.248 83.469 195.679 83.4082 195.125 83.3332C194.821 83.2912 194.609 83.0168 194.652 82.7178C194.688 82.4518 194.918 82.2559 195.185 82.2473ZM202.672 82.3115C202.958 82.3022 203.207 82.5099 203.241 82.7927C203.276 83.092 203.06 83.3638 202.755 83.3982C202.192 83.4628 201.623 83.5139 201.062 83.5484C200.757 83.5665 200.493 83.3374 200.472 83.0378C200.454 82.738 200.688 82.4765 200.993 82.4585C201.532 82.4247 202.082 82.3769 202.625 82.3157C202.642 82.3152 202.658 82.3119 202.672 82.3115Z" fill="#DC8338"/>
</svg>
